<?xml version="1.0" ?><!DOCTYPE svg  PUBLIC '-//W3C//DTD SVG 1.0//EN'  'http://www.w3.org/TR/2001/REC-SVG-20010904/DTD/svg11.dtd'><svg enable-background="new 0 0 64 64" height="40px" id="Layer_1" version="1.0" viewBox="0 0 64 64" width="40px" xml:space="preserve" xmlns="http://www.w3.org/2000/svg" xmlns:xlink="http://www.w3.org/1999/xlink"><path d="M32,0C14.327,0,0,14.327,0,32h64C64,14.327,49.673,0,32,0z" fill="#41D9F2"/><path d="M32,64c17.673,0,32-14.327,32-32H0C0,49.673,14.327,64,32,64z" fill="#3CCDEB"/><path d="M11.004,47.827c0,0,7.761,1.428,12.937-4.052c0,0-6.072-0.355-7.842-6.192c0,0,1.883,0.354,3.769-0.118  c0,0-6.525-1.971-6.873-9.471c0,0,1.94,1.136,3.469,1.014c0,0-5.999-4.644-2.352-12.264c0,0,6.192,9.647,18.19,9.527  c0,0-1.178-6.669,4.234-9.765c5.408-3.097,10.115,0,11.41,1.43c0,0,3.294-0.596,5.405-2.026c0,0-0.346,2.741-3.169,4.646  c0,0,2.588,0.236,4.821-0.83c0,0-1.528,3.094-4.584,4.406c0,0,3.562,17.116-11.681,24.586  C23.904,55.981,11.476,48.301,11.004,47.827z" fill="#F6F6F6"/><g><path d="M13.919,32c1.88,4.221,5.948,5.465,5.948,5.465c-1.886,0.472-3.769,0.118-3.769,0.118   c1.77,5.837,7.842,6.192,7.842,6.192c-5.176,5.479-12.937,4.052-12.937,4.052c0.472,0.474,12.9,8.154,27.735,0.891   C47.171,44.586,49.845,37.506,50.554,32H13.919z" fill="#E1E1E1"/></g></svg>